<?xml version="1.0" encoding="utf-8" ?>
<svg baseProfile="full" height="78mm" version="1.1" viewBox="0,0,200,78" width="200mm" xmlns="http://www.w3.org/2000/svg" xmlns:ev="http://www.w3.org/2001/xml-events" xmlns:xlink="http://www.w3.org/1999/xlink"><defs /><rect fill="#222222" height="78" width="200" x="0" y="0" /><text fill="#FFFFFF" style="font-size:12px; font-family:Arial; font-weight:bold;" x="10" y="20">disksing Twitter</text><text alignment-baseline="hanging" fill="#FFFFFF" style="font-size:10.0px; font-family:Arial;" x="10" y="30">2022</text><text alignment-baseline="hanging" fill="#FFFFFF" style="font-size:4.125px; font-family:Arial;" x="175" y="35">4333 tweets</text><text fill="#FFFFFF" style="font-size:2.5px; font-family:Arial" x="10.0" y="44">Jan</text><text fill="#FFFFFF" style="font-size:2.5px; font-family:Arial" x="25.5" y="44">Feb</text><text fill="#FFFFFF" style="font-size:2.5px; font-family:Arial" x="41.0" y="44">Mar</text><text fill="#FFFFFF" style="font-size:2.5px; font-family:Arial" x="56.5" y="44">Apr</text><text fill="#FFFFFF" style="font-size:2.5px; font-family:Arial" x="72.0" y="44">May</text><text fill="#FFFFFF" style="font-size:2.5px; font-family:Arial" x="87.5" y="44">Jun</text><text fill="#FFFFFF" style="font-size:2.5px; font-family:Arial" x="103.0" y="44">Jul</text><text fill="#FFFFFF" style="font-size:2.5px; font-family:Arial" x="118.5" y="44">Aug</text><text fill="#FFFFFF" style="font-size:2.5px; font-family:Arial" x="134.0" y="44">Sep</text><text fill="#FFFFFF" style="font-size:2.5px; font-family:Arial" x="149.5" y="44">Oct</text><text fill="#FFFFFF" style="font-size:2.5px; font-family:Arial" x="165.0" y="44">Nov</text><text fill="#FFFFFF" style="font-size:2.5px; font-family:Arial" x="180.5" y="44">Dec</text><rect fill="#444444" height="2.6" width="2.6" x="10.0" y="45.5"><title>2021-12-27</title></rect><rect fill="#444444" height="2.6" width="2.6" x="10.0" y="49.0"><title>2021-12-28</title></rect><rect fill="#444444" height="2.6" width="2.6" x="10.0" y="52.5"><title>2021-12-29</title></rect><rect fill="#444444" height="2.6" width="2.6" x="10.0" y="56.0"><title>2021-12-30</title></rect><rect fill="#444444" height="2.6" width="2.6" x="10.0" y="59.5"><title>2021-12-31</title></rect><rect fill="#444444" height="2.6" width="2.6" x="10.0" y="63.0"><title>2022-01-01</title></rect><rect fill="#444444" height="2.6" width="2.6" x="10.0" y="66.5"><title>2022-01-02</title></rect><rect fill="#444444" height="2.6" width="2.6" x="13.5" y="45.5"><title>2022-01-03</title></rect><rect fill="#444444" height="2.6" width="2.6" x="13.5" y="49.0"><title>2022-01-04</title></rect><rect fill="#444444" height="2.6" width="2.6" x="13.5" y="52.5"><title>2022-01-05</title></rect><rect fill="#48f8ff" height="2.6" width="2.6" x="13.5" y="56.0"><title>2022-01-06 4 tweets</title></rect><rect fill="#46fff9" height="2.6" width="2.6" x="13.5" y="59.5"><title>2022-01-07 5 tweets</title></rect><rect fill="#4bdeff" height="2.6" width="2.6" x="13.5" y="63.0"><title>2022-01-08 2 tweets</title></rect><rect fill="#4dd2ff" height="2.6" width="2.6" x="13.5" y="66.5"><title>2022-01-09 1 tweets</title></rect><rect fill="#48f8ff" height="2.6" width="2.6" x="17.0" y="45.5"><title>2022-01-10 4 tweets</title></rect><rect fill="#4bdeff" height="2.6" width="2.6" x="17.0" y="49.0"><title>2022-01-11 2 tweets</title></rect><rect fill="#4bdeff" height="2.6" width="2.6" x="17.0" y="52.5"><title>2022-01-12 2 tweets</title></rect><rect fill="#4dd2ff" height="2.6" width="2.6" x="17.0" y="56.0"><title>2022-01-13 1 tweets</title></rect><rect fill="#3cffa7" height="2.6" width="2.6" x="17.0" y="59.5"><title>2022-01-14 11 tweets</title></rect><rect fill="#444444" height="2.6" width="2.6" x="17.0" y="63.0"><title>2022-01-15</title></rect><rect fill="#46fff9" height="2.6" width="2.6" x="17.0" y="66.5"><title>2022-01-16 5 tweets</title></rect><rect fill="#46fff9" height="2.6" width="2.6" x="20.5" y="45.5"><title>2022-01-17 5 tweets</title></rect><rect fill="#4bdeff" height="2.6" width="2.6" x="20.5" y="49.0"><title>2022-01-18 2 tweets</title></rect><rect fill="#3cffa7" height="2.6" width="2.6" x="20.5" y="52.5"><title>2022-01-19 11 tweets</title></rect><rect fill="#4dd2ff" height="2.6" width="2.6" x="20.5" y="56.0"><title>2022-01-20 1 tweets</title></rect><rect fill="#4dd2ff" height="2.6" width="2.6" x="20.5" y="59.5"><title>2022-01-21 1 tweets</title></rect><rect fill="#4bdeff" height="2.6" width="2.6" x="20.5" y="63.0"><title>2022-01-22 2 tweets</title></rect><rect fill="#4bdeff" height="2.6" width="2.6" x="20.5" y="66.5"><title>2022-01-23 2 tweets</title></rect><rect fill="#4bdeff" height="2.6" width="2.6" x="24.0" y="45.5"><title>2022-01-24 2 tweets</title></rect><rect fill="#444444" height="2.6" width="2.6" x="24.0" y="49.0"><title>2022-01-25</title></rect><rect fill="#46fff9" height="2.6" width="2.6" x="24.0" y="52.5"><title>2022-01-26 5 tweets</title></rect><rect fill="#41ffd1" height="2.6" width="2.6" x="24.0" y="56.0"><title>2022-01-27 8 tweets</title></rect><rect fill="#4aebff" height="2.6" width="2.6" x="24.0" y="59.5"><title>2022-01-28 3 tweets</title></rect><rect fill="#45ffec" height="2.6" width="2.6" x="24.0" y="63.0"><title>2022-01-29 6 tweets</title></rect><rect fill="#4dd2ff" height="2.6" width="2.6" x="24.0" y="66.5"><title>2022-01-30 1 tweets</title></rect><rect fill="#3bff98" height="2.6" width="2.6" x="27.5" y="45.5"><title>2022-01-31 12 tweets</title></rect><rect fill="#4dd2ff" height="2.6" width="2.6" x="27.5" y="49.0"><title>2022-02-01 1 tweets</title></rect><rect fill="#444444" height="2.6" width="2.6" x="27.5" y="52.5"><title>2022-02-02</title></rect><rect fill="#4aebff" height="2.6" width="2.6" x="27.5" y="56.0"><title>2022-02-03 3 tweets</title></rect><rect fill="#43ffdf" height="2.6" width="2.6" x="27.5" y="59.5"><title>2022-02-04 7 tweets</title></rect><rect fill="#4aebff" height="2.6" width="2.6" x="27.5" y="63.0"><title>2022-02-05 3 tweets</title></rect><rect fill="#4dd2ff" height="2.6" width="2.6" x="27.5" y="66.5"><title>2022-02-06 1 tweets</title></rect><rect fill="#40ffc3" height="2.6" width="2.6" x="31.0" y="45.5"><title>2022-02-07 9 tweets</title></rect><rect fill="#48f8ff" height="2.6" width="2.6" x="31.0" y="49.0"><title>2022-02-08 4 tweets</title></rect><rect fill="#4bdeff" height="2.6" width="2.6" x="31.0" y="52.5"><title>2022-02-09 2 tweets</title></rect><rect fill="#4bdeff" height="2.6" width="2.6" x="31.0" y="56.0"><title>2022-02-10 2 tweets</title></rect><rect fill="#48f8ff" height="2.6" width="2.6" x="31.0" y="59.5"><title>2022-02-11 4 tweets</title></rect><rect fill="#4bdeff" height="2.6" width="2.6" x="31.0" y="63.0"><title>2022-02-12 2 tweets</title></rect><rect fill="#48f8ff" height="2.6" width="2.6" x="31.0" y="66.5"><title>2022-02-13 4 tweets</title></rect><rect fill="#46fff9" height="2.6" width="2.6" x="34.5" y="45.5"><title>2022-02-14 5 tweets</title></rect><rect fill="#48f8ff" height="2.6" width="2.6" x="34.5" y="49.0"><title>2022-02-15 4 tweets</title></rect><rect fill="#43ffdf" height="2.6" width="2.6" x="34.5" y="52.5"><title>2022-02-16 7 tweets</title></rect><rect fill="#4aebff" height="2.6" width="2.6" x="34.5" y="56.0"><title>2022-02-17 3 tweets</title></rect><rect fill="#3effb5" height="2.6" width="2.6" x="34.5" y="59.5"><title>2022-02-18 10 tweets</title></rect><rect fill="#4bdeff" height="2.6" width="2.6" x="34.5" y="63.0"><title>2022-02-19 2 tweets</title></rect><rect fill="#4bdeff" height="2.6" width="2.6" x="34.5" y="66.5"><title>2022-02-20 2 tweets</title></rect><rect fill="#4aebff" height="2.6" width="2.6" x="38.0" y="45.5"><title>2022-02-21 3 tweets</title></rect><rect fill="#41ffd1" height="2.6" width="2.6" x="38.0" y="49.0"><title>2022-02-22 8 tweets</title></rect><rect fill="#40ffc3" height="2.6" width="2.6" x="38.0" y="52.5"><title>2022-02-23 9 tweets</title></rect><rect fill="#4bdeff" height="2.6" width="2.6" x="38.0" y="56.0"><title>2022-02-24 2 tweets</title></rect><rect fill="#4dd2ff" height="2.6" width="2.6" x="38.0" y="59.5"><title>2022-02-25 1 tweets</title></rect><rect fill="#4bdeff" height="2.6" width="2.6" x="38.0" y="63.0"><title>2022-02-26 2 tweets</title></rect><rect fill="#444444" height="2.6" width="2.6" x="38.0" y="66.5"><title>2022-02-27</title></rect><rect fill="#4dd2ff" height="2.6" width="2.6" x="41.5" y="45.5"><title>2022-02-28 1 tweets</title></rect><rect fill="#4dd2ff" height="2.6" width="2.6" x="41.5" y="49.0"><title>2022-03-01 1 tweets</title></rect><rect fill="#4bdeff" height="2.6" width="2.6" x="41.5" y="52.5"><title>2022-03-02 2 tweets</title></rect><rect fill="#4dd2ff" height="2.6" width="2.6" x="41.5" y="56.0"><title>2022-03-03 1 tweets</title></rect><rect fill="#45ffec" height="2.6" width="2.6" x="41.5" y="59.5"><title>2022-03-04 6 tweets</title></rect><rect fill="#4aebff" height="2.6" width="2.6" x="41.5" y="63.0"><title>2022-03-05 3 tweets</title></rect><rect fill="#444444" height="2.6" width="2.6" x="41.5" y="66.5"><title>2022-03-06</title></rect><rect fill="#3effb5" height="2.6" width="2.6" x="45.0" y="45.5"><title>2022-03-07 10 tweets</title></rect><rect fill="#40ffc3" height="2.6" width="2.6" x="45.0" y="49.0"><title>2022-03-08 9 tweets</title></rect><rect fill="#39ff89" height="2.6" width="2.6" x="45.0" y="52.5"><title>2022-03-09 13 tweets</title></rect><rect fill="#4bdeff" height="2.6" width="2.6" x="45.0" y="56.0"><title>2022-03-10 2 tweets</title></rect><rect fill="#46fff9" height="2.6" width="2.6" x="45.0" y="59.5"><title>2022-03-11 5 tweets</title></rect><rect fill="#444444" height="2.6" width="2.6" x="45.0" y="63.0"><title>2022-03-12</title></rect><rect fill="#4dd2ff" height="2.6" width="2.6" x="45.0" y="66.5"><title>2022-03-13 1 tweets</title></rect><rect fill="#4aebff" height="2.6" width="2.6" x="48.5" y="45.5"><title>2022-03-14 3 tweets</title></rect><rect fill="#45ffec" height="2.6" width="2.6" x="48.5" y="49.0"><title>2022-03-15 6 tweets</title></rect><rect fill="#40ffc3" height="2.6" width="2.6" x="48.5" y="52.5"><title>2022-03-16 9 tweets</title></rect><rect fill="#40ffc3" height="2.6" width="2.6" x="48.5" y="56.0"><title>2022-03-17 9 tweets</title></rect><rect fill="#46fff9" height="2.6" width="2.6" x="48.5" y="59.5"><title>2022-03-18 5 tweets</title></rect><rect fill="#4bdeff" height="2.6" width="2.6" x="48.5" y="63.0"><title>2022-03-19 2 tweets</title></rect><rect fill="#45ffec" height="2.6" width="2.6" x="48.5" y="66.5"><title>2022-03-20 6 tweets</title></rect><rect fill="#43ffdf" height="2.6" width="2.6" x="52.0" y="45.5"><title>2022-03-21 7 tweets</title></rect><rect fill="#36ff6b" height="2.6" width="2.6" x="52.0" y="49.0"><title>2022-03-22 15 tweets</title></rect><rect fill="#43ffdf" height="2.6" width="2.6" x="52.0" y="52.5"><title>2022-03-23 7 tweets</title></rect><rect fill="#3bff98" height="2.6" width="2.6" x="52.0" y="56.0"><title>2022-03-24 12 tweets</title></rect><rect fill="#4bdeff" height="2.6" width="2.6" x="52.0" y="59.5"><title>2022-03-25 2 tweets</title></rect><rect fill="#444444" height="2.6" width="2.6" x="52.0" y="63.0"><title>2022-03-26</title></rect><rect fill="#444444" height="2.6" width="2.6" x="52.0" y="66.5"><title>2022-03-27</title></rect><rect fill="#48f8ff" height="2.6" width="2.6" x="55.5" y="45.5"><title>2022-03-28 4 tweets</title></rect><rect fill="#46fff9" height="2.6" width="2.6" x="55.5" y="49.0"><title>2022-03-29 5 tweets</title></rect><rect fill="#43ffdf" height="2.6" width="2.6" x="55.5" y="52.5"><title>2022-03-30 7 tweets</title></rect><rect fill="#3cffa7" height="2.6" width="2.6" x="55.5" y="56.0"><title>2022-03-31 11 tweets</title></rect><rect fill="#3bff98" height="2.6" width="2.6" x="55.5" y="59.5"><title>2022-04-01 12 tweets</title></rect><rect fill="#48f8ff" height="2.6" width="2.6" x="55.5" y="63.0"><title>2022-04-02 4 tweets</title></rect><rect fill="#43ffdf" height="2.6" width="2.6" x="55.5" y="66.5"><title>2022-04-03 7 tweets</title></rect><rect fill="#4bdeff" height="2.6" width="2.6" x="59.0" y="45.5"><title>2022-04-04 2 tweets</title></rect><rect fill="#43ffdf" height="2.6" width="2.6" x="59.0" y="49.0"><title>2022-04-05 7 tweets</title></rect><rect fill="#40ffc3" height="2.6" width="2.6" x="59.0" y="52.5"><title>2022-04-06 9 tweets</title></rect><rect fill="#3effb5" height="2.6" width="2.6" x="59.0" y="56.0"><title>2022-04-07 10 tweets</title></rect><rect fill="#4bdeff" height="2.6" width="2.6" x="59.0" y="59.5"><title>2022-04-08 2 tweets</title></rect><rect fill="#4bdeff" height="2.6" width="2.6" x="59.0" y="63.0"><title>2022-04-09 2 tweets</title></rect><rect fill="#4dd2ff" height="2.6" width="2.6" x="59.0" y="66.5"><title>2022-04-10 1 tweets</title></rect><rect fill="#39ff89" height="2.6" width="2.6" x="62.5" y="45.5"><title>2022-04-11 13 tweets</title></rect><rect fill="#40ffc3" height="2.6" width="2.6" x="62.5" y="49.0"><title>2022-04-12 9 tweets</title></rect><rect fill="#39ff89" height="2.6" width="2.6" x="62.5" y="52.5"><title>2022-04-13 13 tweets</title></rect><rect fill="#40ffc3" height="2.6" width="2.6" x="62.5" y="56.0"><title>2022-04-14 9 tweets</title></rect><rect fill="#41ffd1" height="2.6" width="2.6" x="62.5" y="59.5"><title>2022-04-15 8 tweets</title></rect><rect fill="#43ffdf" height="2.6" width="2.6" x="62.5" y="63.0"><title>2022-04-16 7 tweets</title></rect><rect fill="#48f8ff" height="2.6" width="2.6" x="62.5" y="66.5"><title>2022-04-17 4 tweets</title></rect><rect fill="#46fff9" height="2.6" width="2.6" x="66.0" y="45.5"><title>2022-04-18 5 tweets</title></rect><rect fill="#40ffc3" height="2.6" width="2.6" x="66.0" y="49.0"><title>2022-04-19 9 tweets</title></rect><rect fill="#3effb5" height="2.6" width="2.6" x="66.0" y="52.5"><title>2022-04-20 10 tweets</title></rect><rect fill="#39ff89" height="2.6" width="2.6" x="66.0" y="56.0"><title>2022-04-21 13 tweets</title></rect><rect fill="#36ff6b" height="2.6" width="2.6" x="66.0" y="59.5"><title>2022-04-22 15 tweets</title></rect><rect fill="#3bff98" height="2.6" width="2.6" x="66.0" y="63.0"><title>2022-04-23 12 tweets</title></rect><rect fill="#43ffdf" height="2.6" width="2.6" x="66.0" y="66.5"><title>2022-04-24 7 tweets</title></rect><rect fill="#4bdeff" height="2.6" width="2.6" x="69.5" y="45.5"><title>2022-04-25 2 tweets</title></rect><rect fill="#4bdeff" height="2.6" width="2.6" x="69.5" y="49.0"><title>2022-04-26 2 tweets</title></rect><rect fill="#37ff7a" height="2.6" width="2.6" x="69.5" y="52.5"><title>2022-04-27 14 tweets</title></rect><rect fill="#4eff2c" height="2.6" width="2.6" x="69.5" y="56.0"><title>2022-04-28 21 tweets</title></rect><rect fill="#41ffd1" height="2.6" width="2.6" x="69.5" y="59.5"><title>2022-04-29 8 tweets</title></rect><rect fill="#444444" height="2.6" width="2.6" x="69.5" y="63.0"><title>2022-04-30</title></rect><rect fill="#46fff9" height="2.6" width="2.6" x="69.5" y="66.5"><title>2022-05-01 5 tweets</title></rect><rect fill="#4bdeff" height="2.6" width="2.6" x="73.0" y="45.5"><title>2022-05-02 2 tweets</title></rect><rect fill="#43ffdf" height="2.6" width="2.6" x="73.0" y="49.0"><title>2022-05-03 7 tweets</title></rect><rect fill="#4aebff" height="2.6" width="2.6" x="73.0" y="52.5"><title>2022-05-04 3 tweets</title></rect><rect fill="#45ffec" height="2.6" width="2.6" x="73.0" y="56.0"><title>2022-05-05 6 tweets</title></rect><rect fill="#3effb5" height="2.6" width="2.6" x="73.0" y="59.5"><title>2022-05-06 10 tweets</title></rect><rect fill="#46fff9" height="2.6" width="2.6" x="73.0" y="63.0"><title>2022-05-07 5 tweets</title></rect><rect fill="#4aebff" height="2.6" width="2.6" x="73.0" y="66.5"><title>2022-05-08 3 tweets</title></rect><rect fill="#45ffec" height="2.6" width="2.6" x="76.5" y="45.5"><title>2022-05-09 6 tweets</title></rect><rect fill="#37ff7a" height="2.6" width="2.6" x="76.5" y="49.0"><title>2022-05-10 14 tweets</title></rect><rect fill="#45ffec" height="2.6" width="2.6" x="76.5" y="52.5"><title>2022-05-11 6 tweets</title></rect><rect fill="#45ffec" height="2.6" width="2.6" x="76.5" y="56.0"><title>2022-05-12 6 tweets</title></rect><rect fill="#48f8ff" height="2.6" width="2.6" x="76.5" y="59.5"><title>2022-05-13 4 tweets</title></rect><rect fill="#46fff9" height="2.6" width="2.6" x="76.5" y="63.0"><title>2022-05-14 5 tweets</title></rect><rect fill="#4bdeff" height="2.6" width="2.6" x="76.5" y="66.5"><title>2022-05-15 2 tweets</title></rect><rect fill="#41ffd1" height="2.6" width="2.6" x="80.0" y="45.5"><title>2022-05-16 8 tweets</title></rect><rect fill="#4aebff" height="2.6" width="2.6" x="80.0" y="49.0"><title>2022-05-17 3 tweets</title></rect><rect fill="#48f8ff" height="2.6" width="2.6" x="80.0" y="52.5"><title>2022-05-18 4 tweets</title></rect><rect fill="#3bff98" height="2.6" width="2.6" x="80.0" y="56.0"><title>2022-05-19 12 tweets</title></rect><rect fill="#3effb5" height="2.6" width="2.6" x="80.0" y="59.5"><title>2022-05-20 10 tweets</title></rect><rect fill="#45ffec" height="2.6" width="2.6" x="80.0" y="63.0"><title>2022-05-21 6 tweets</title></rect><rect fill="#45ffec" height="2.6" width="2.6" x="80.0" y="66.5"><title>2022-05-22 6 tweets</title></rect><rect fill="#45ffec" height="2.6" width="2.6" x="83.5" y="45.5"><title>2022-05-23 6 tweets</title></rect><rect fill="#3effb5" height="2.6" width="2.6" x="83.5" y="49.0"><title>2022-05-24 10 tweets</title></rect><rect fill="#31ff3b" height="2.6" width="2.6" x="83.5" y="52.5"><title>2022-05-25 18 tweets</title></rect><rect fill="#39ff89" height="2.6" width="2.6" x="83.5" y="56.0"><title>2022-05-26 13 tweets</title></rect><rect fill="#3bff98" height="2.6" width="2.6" x="83.5" y="59.5"><title>2022-05-27 12 tweets</title></rect><rect fill="#41ffd1" height="2.6" width="2.6" x="83.5" y="63.0"><title>2022-05-28 8 tweets</title></rect><rect fill="#48f8ff" height="2.6" width="2.6" x="83.5" y="66.5"><title>2022-05-29 4 tweets</title></rect><rect fill="#32ff4b" height="2.6" width="2.6" x="87.0" y="45.5"><title>2022-05-30 17 tweets</title></rect><rect fill="#33ff2f" height="2.6" width="2.6" x="87.0" y="49.0"><title>2022-05-31 19 tweets</title></rect><rect fill="#32ff4b" height="2.6" width="2.6" x="87.0" y="52.5"><title>2022-06-01 17 tweets</title></rect><rect fill="#43ffdf" height="2.6" width="2.6" x="87.0" y="56.0"><title>2022-06-02 7 tweets</title></rect><rect fill="#4bdeff" height="2.6" width="2.6" x="87.0" y="59.5"><title>2022-06-03 2 tweets</title></rect><rect fill="#4bdeff" height="2.6" width="2.6" x="87.0" y="63.0"><title>2022-06-04 2 tweets</title></rect><rect fill="#3effb5" height="2.6" width="2.6" x="87.0" y="66.5"><title>2022-06-05 10 tweets</title></rect><rect fill="#41ffd1" height="2.6" width="2.6" x="90.5" y="45.5"><title>2022-06-06 8 tweets</title></rect><rect fill="#3effb5" height="2.6" width="2.6" x="90.5" y="49.0"><title>2022-06-07 10 tweets</title></rect><rect fill="#33ff2f" height="2.6" width="2.6" x="90.5" y="52.5"><title>2022-06-08 19 tweets</title></rect><rect fill="#32ff4b" height="2.6" width="2.6" x="90.5" y="56.0"><title>2022-06-09 17 tweets</title></rect><rect fill="#3cffa7" height="2.6" width="2.6" x="90.5" y="59.5"><title>2022-06-10 11 tweets</title></rect><rect fill="#40ffc3" height="2.6" width="2.6" x="90.5" y="63.0"><title>2022-06-11 9 tweets</title></rect><rect fill="#46fff9" height="2.6" width="2.6" x="90.5" y="66.5"><title>2022-06-12 5 tweets</title></rect><rect fill="#39ff89" height="2.6" width="2.6" x="94.0" y="45.5"><title>2022-06-13 13 tweets</title></rect><rect fill="#39ff89" height="2.6" width="2.6" x="94.0" y="49.0"><title>2022-06-14 13 tweets</title></rect><rect fill="#33ff2f" height="2.6" width="2.6" x="94.0" y="52.5"><title>2022-06-15 19 tweets</title></rect><rect fill="#40ffc3" height="2.6" width="2.6" x="94.0" y="56.0"><title>2022-06-16 9 tweets</title></rect><rect fill="#39ff89" height="2.6" width="2.6" x="94.0" y="59.5"><title>2022-06-17 13 tweets</title></rect><rect fill="#43ffdf" height="2.6" width="2.6" x="94.0" y="63.0"><title>2022-06-18 7 tweets</title></rect><rect fill="#3cffa7" height="2.6" width="2.6" x="94.0" y="66.5"><title>2022-06-19 11 tweets</title></rect><rect fill="#46fff9" height="2.6" width="2.6" x="97.5" y="45.5"><title>2022-06-20 5 tweets</title></rect><rect fill="#3effb5" height="2.6" width="2.6" x="97.5" y="49.0"><title>2022-06-21 10 tweets</title></rect><rect fill="#46fff9" height="2.6" width="2.6" x="97.5" y="52.5"><title>2022-06-22 5 tweets</title></rect><rect fill="#43ffdf" height="2.6" width="2.6" x="97.5" y="56.0"><title>2022-06-23 7 tweets</title></rect><rect fill="#39ff89" height="2.6" width="2.6" x="97.5" y="59.5"><title>2022-06-24 13 tweets</title></rect><rect fill="#40ffc3" height="2.6" width="2.6" x="97.5" y="63.0"><title>2022-06-25 9 tweets</title></rect><rect fill="#48f8ff" height="2.6" width="2.6" x="97.5" y="66.5"><title>2022-06-26 4 tweets</title></rect><rect fill="#36ff6b" height="2.6" width="2.6" x="101.0" y="45.5"><title>2022-06-27 15 tweets</title></rect><rect fill="#32ff4b" height="2.6" width="2.6" x="101.0" y="49.0"><title>2022-06-28 17 tweets</title></rect><rect fill="#41ffd1" height="2.6" width="2.6" x="101.0" y="52.5"><title>2022-06-29 8 tweets</title></rect><rect fill="#32ff4b" height="2.6" width="2.6" x="101.0" y="56.0"><title>2022-06-30 17 tweets</title></rect><rect fill="#3cffa7" height="2.6" width="2.6" x="101.0" y="59.5"><title>2022-07-01 11 tweets</title></rect><rect fill="#41ffd1" height="2.6" width="2.6" x="101.0" y="63.0"><title>2022-07-02 8 tweets</title></rect><rect fill="#37ff7a" height="2.6" width="2.6" x="101.0" y="66.5"><title>2022-07-03 14 tweets</title></rect><rect fill="#3effb5" height="2.6" width="2.6" x="104.5" y="45.5"><title>2022-07-04 10 tweets</title></rect><rect fill="#46fff9" height="2.6" width="2.6" x="104.5" y="49.0"><title>2022-07-05 5 tweets</title></rect><rect fill="#4eff2c" height="2.6" width="2.6" x="104.5" y="52.5"><title>2022-07-06 21 tweets</title></rect><rect fill="#31ff3b" height="2.6" width="2.6" x="104.5" y="56.0"><title>2022-07-07 18 tweets</title></rect><rect fill="#34ff5b" height="2.6" width="2.6" x="104.5" y="59.5"><title>2022-07-08 16 tweets</title></rect><rect fill="#36ff6b" height="2.6" width="2.6" x="104.5" y="63.0"><title>2022-07-09 15 tweets</title></rect><rect fill="#46fff9" height="2.6" width="2.6" x="104.5" y="66.5"><title>2022-07-10 5 tweets</title></rect><rect fill="#39ff89" height="2.6" width="2.6" x="108.0" y="45.5"><title>2022-07-11 13 tweets</title></rect><rect fill="#39ff89" height="2.6" width="2.6" x="108.0" y="49.0"><title>2022-07-12 13 tweets</title></rect><rect fill="#45ffec" height="2.6" width="2.6" x="108.0" y="52.5"><title>2022-07-13 6 tweets</title></rect><rect fill="#33ff2f" height="2.6" width="2.6" x="108.0" y="56.0"><title>2022-07-14 19 tweets</title></rect><rect fill="#32ff4b" height="2.6" width="2.6" x="108.0" y="59.5"><title>2022-07-15 17 tweets</title></rect><rect fill="#39ff89" height="2.6" width="2.6" x="108.0" y="63.0"><title>2022-07-16 13 tweets</title></rect><rect fill="#3effb5" height="2.6" width="2.6" x="108.0" y="66.5"><title>2022-07-17 10 tweets</title></rect><rect fill="#4eff2c" height="2.6" width="2.6" x="111.5" y="45.5"><title>2022-07-18 21 tweets</title></rect><rect fill="#32ff4b" height="2.6" width="2.6" x="111.5" y="49.0"><title>2022-07-19 17 tweets</title></rect><rect fill="#ff4300" height="2.6" width="2.6" x="111.5" y="52.5"><title>2022-07-20 35 tweets</title></rect><rect fill="#31ff3b" height="2.6" width="2.6" x="111.5" y="56.0"><title>2022-07-21 18 tweets</title></rect><rect fill="#36ff6b" height="2.6" width="2.6" x="111.5" y="59.5"><title>2022-07-22 15 tweets</title></rect><rect fill="#46fff9" height="2.6" width="2.6" x="111.5" y="63.0"><title>2022-07-23 5 tweets</title></rect><rect fill="#444444" height="2.6" width="2.6" x="111.5" y="66.5"><title>2022-07-24</title></rect><rect fill="#3bff98" height="2.6" width="2.6" x="115.0" y="45.5"><title>2022-07-25 12 tweets</title></rect><rect fill="#31ff3b" height="2.6" width="2.6" x="115.0" y="49.0"><title>2022-07-26 18 tweets</title></rect><rect fill="#37ff7a" height="2.6" width="2.6" x="115.0" y="52.5"><title>2022-07-27 14 tweets</title></rect><rect fill="#ff6f00" height="2.6" width="2.6" x="115.0" y="56.0"><title>2022-07-28 27 tweets</title></rect><rect fill="#ff7400" height="2.6" width="2.6" x="115.0" y="59.5"><title>2022-07-29 26 tweets</title></rect><rect fill="#36ff6b" height="2.6" width="2.6" x="115.0" y="63.0"><title>2022-07-30 15 tweets</title></rect><rect fill="#3effb5" height="2.6" width="2.6" x="115.0" y="66.5"><title>2022-07-31 10 tweets</title></rect><rect fill="#31ff3b" height="2.6" width="2.6" x="118.5" y="45.5"><title>2022-08-01 18 tweets</title></rect><rect fill="#32ff4b" height="2.6" width="2.6" x="118.5" y="49.0"><title>2022-08-02 17 tweets</title></rect><rect fill="#36ff6b" height="2.6" width="2.6" x="118.5" y="52.5"><title>2022-08-03 15 tweets</title></rect><rect fill="#33ff2f" height="2.6" width="2.6" x="118.5" y="56.0"><title>2022-08-04 19 tweets</title></rect><rect fill="red" height="2.6" width="2.6" x="118.5" y="59.5"><title>2022-08-05 41 tweets</title></rect><rect fill="#45ffec" height="2.6" width="2.6" x="118.5" y="63.0"><title>2022-08-06 6 tweets</title></rect><rect fill="#31ff3b" height="2.6" width="2.6" x="118.5" y="66.5"><title>2022-08-07 18 tweets</title></rect><rect fill="#32ff4b" height="2.6" width="2.6" x="122.0" y="45.5"><title>2022-08-08 17 tweets</title></rect><rect fill="#ff5900" height="2.6" width="2.6" x="122.0" y="49.0"><title>2022-08-09 31 tweets</title></rect><rect fill="#32ff4b" height="2.6" width="2.6" x="122.0" y="52.5"><title>2022-08-10 17 tweets</title></rect><rect fill="#48f8ff" height="2.6" width="2.6" x="122.0" y="56.0"><title>2022-08-11 4 tweets</title></rect><rect fill="#40ffc3" height="2.6" width="2.6" x="122.0" y="59.5"><title>2022-08-12 9 tweets</title></rect><rect fill="#43ffdf" height="2.6" width="2.6" x="122.0" y="63.0"><title>2022-08-13 7 tweets</title></rect><rect fill="#31ff3b" height="2.6" width="2.6" x="122.0" y="66.5"><title>2022-08-14 18 tweets</title></rect><rect fill="#34ff5b" height="2.6" width="2.6" x="125.5" y="45.5"><title>2022-08-15 16 tweets</title></rect><rect fill="#31ff3b" height="2.6" width="2.6" x="125.5" y="49.0"><title>2022-08-16 18 tweets</title></rect><rect fill="#34ff5b" height="2.6" width="2.6" x="125.5" y="52.5"><title>2022-08-17 16 tweets</title></rect><rect fill="#37ff7a" height="2.6" width="2.6" x="125.5" y="56.0"><title>2022-08-18 14 tweets</title></rect><rect fill="#ff4e00" height="2.6" width="2.6" x="125.5" y="59.5"><title>2022-08-19 33 tweets</title></rect><rect fill="#43ffdf" height="2.6" width="2.6" x="125.5" y="63.0"><title>2022-08-20 7 tweets</title></rect><rect fill="#43ffdf" height="2.6" width="2.6" x="125.5" y="66.5"><title>2022-08-21 7 tweets</title></rect><rect fill="#41ffd1" height="2.6" width="2.6" x="129.0" y="45.5"><title>2022-08-22 8 tweets</title></rect><rect fill="#ff5e00" height="2.6" width="2.6" x="129.0" y="49.0"><title>2022-08-23 30 tweets</title></rect><rect fill="#ff7f00" height="2.6" width="2.6" x="129.0" y="52.5"><title>2022-08-24 24 tweets</title></rect><rect fill="red" height="2.6" width="2.6" x="129.0" y="56.0"><title>2022-08-25 40 tweets</title></rect><rect fill="#40ff2d" height="2.6" width="2.6" x="129.0" y="59.5"><title>2022-08-26 20 tweets</title></rect><rect fill="#37ff7a" height="2.6" width="2.6" x="129.0" y="63.0"><title>2022-08-27 14 tweets</title></rect><rect fill="#46fff9" height="2.6" width="2.6" x="129.0" y="66.5"><title>2022-08-28 5 tweets</title></rect><rect fill="#32ff4b" height="2.6" width="2.6" x="132.5" y="45.5"><title>2022-08-29 17 tweets</title></rect><rect fill="#37ff7a" height="2.6" width="2.6" x="132.5" y="49.0"><title>2022-08-30 14 tweets</title></rect><rect fill="#ff4300" height="2.6" width="2.6" x="132.5" y="52.5"><title>2022-08-31 35 tweets</title></rect><rect fill="#40ff2d" height="2.6" width="2.6" x="132.5" y="56.0"><title>2022-09-01 20 tweets</title></rect><rect fill="#4eff2c" height="2.6" width="2.6" x="132.5" y="59.5"><title>2022-09-02 21 tweets</title></rect><rect fill="#3effb5" height="2.6" width="2.6" x="132.5" y="63.0"><title>2022-09-03 10 tweets</title></rect><rect fill="#43ffdf" height="2.6" width="2.6" x="132.5" y="66.5"><title>2022-09-04 7 tweets</title></rect><rect fill="#3cffa7" height="2.6" width="2.6" x="136.0" y="45.5"><title>2022-09-05 11 tweets</title></rect><rect fill="#31ff3b" height="2.6" width="2.6" x="136.0" y="49.0"><title>2022-09-06 18 tweets</title></rect><rect fill="#3bff98" height="2.6" width="2.6" x="136.0" y="52.5"><title>2022-09-07 12 tweets</title></rect><rect fill="#ff6900" height="2.6" width="2.6" x="136.0" y="56.0"><title>2022-09-08 28 tweets</title></rect><rect fill="#40ffc3" height="2.6" width="2.6" x="136.0" y="59.5"><title>2022-09-09 9 tweets</title></rect><rect fill="#31ff3b" height="2.6" width="2.6" x="136.0" y="63.0"><title>2022-09-10 18 tweets</title></rect><rect fill="#31ff3b" height="2.6" width="2.6" x="136.0" y="66.5"><title>2022-09-11 18 tweets</title></rect><rect fill="#40ffc3" height="2.6" width="2.6" x="139.5" y="45.5"><title>2022-09-12 9 tweets</title></rect><rect fill="red" height="2.6" width="2.6" x="139.5" y="49.0"><title>2022-09-13 39 tweets</title></rect><rect fill="#3cffa7" height="2.6" width="2.6" x="139.5" y="52.5"><title>2022-09-14 11 tweets</title></rect><rect fill="#3bff98" height="2.6" width="2.6" x="139.5" y="56.0"><title>2022-09-15 12 tweets</title></rect><rect fill="#34ff5b" height="2.6" width="2.6" x="139.5" y="59.5"><title>2022-09-16 16 tweets</title></rect><rect fill="#3bff98" height="2.6" width="2.6" x="139.5" y="63.0"><title>2022-09-17 12 tweets</title></rect><rect fill="#4aebff" height="2.6" width="2.6" x="139.5" y="66.5"><title>2022-09-18 3 tweets</title></rect><rect fill="#37ff7a" height="2.6" width="2.6" x="143.0" y="45.5"><title>2022-09-19 14 tweets</title></rect><rect fill="#3bff98" height="2.6" width="2.6" x="143.0" y="49.0"><title>2022-09-20 12 tweets</title></rect><rect fill="#33ff2f" height="2.6" width="2.6" x="143.0" y="52.5"><title>2022-09-21 19 tweets</title></rect><rect fill="red" height="2.6" width="2.6" x="143.0" y="56.0"><title>2022-09-22 41 tweets</title></rect><rect fill="#34ff5b" height="2.6" width="2.6" x="143.0" y="59.5"><title>2022-09-23 16 tweets</title></rect><rect fill="#48f8ff" height="2.6" width="2.6" x="143.0" y="63.0"><title>2022-09-24 4 tweets</title></rect><rect fill="#3bff98" height="2.6" width="2.6" x="143.0" y="66.5"><title>2022-09-25 12 tweets</title></rect><rect fill="#5bff2a" height="2.6" width="2.6" x="146.5" y="45.5"><title>2022-09-26 22 tweets</title></rect><rect fill="#34ff5b" height="2.6" width="2.6" x="146.5" y="49.0"><title>2022-09-27 16 tweets</title></rect><rect fill="#ff6400" height="2.6" width="2.6" x="146.5" y="52.5"><title>2022-09-28 29 tweets</title></rect><rect fill="#ff7a00" height="2.6" width="2.6" x="146.5" y="56.0"><title>2022-09-29 25 tweets</title></rect><rect fill="#37ff7a" height="2.6" width="2.6" x="146.5" y="59.5"><title>2022-09-30 14 tweets</title></rect><rect fill="#34ff5b" height="2.6" width="2.6" x="146.5" y="63.0"><title>2022-10-01 16 tweets</title></rect><rect fill="#39ff89" height="2.6" width="2.6" x="146.5" y="66.5"><title>2022-10-02 13 tweets</title></rect><rect fill="#41ffd1" height="2.6" width="2.6" x="150.0" y="45.5"><title>2022-10-03 8 tweets</title></rect><rect fill="#36ff6b" height="2.6" width="2.6" x="150.0" y="49.0"><title>2022-10-04 15 tweets</title></rect><rect fill="red" height="2.6" width="2.6" x="150.0" y="52.5"><title>2022-10-05 47 tweets</title></rect><rect fill="#ff5e00" height="2.6" width="2.6" x="150.0" y="56.0"><title>2022-10-06 30 tweets</title></rect><rect fill="red" height="2.6" width="2.6" x="150.0" y="59.5"><title>2022-10-07 38 tweets</title></rect><rect fill="red" height="2.6" width="2.6" x="150.0" y="63.0"><title>2022-10-08 44 tweets</title></rect><rect fill="red" height="2.6" width="2.6" x="150.0" y="66.5"><title>2022-10-09 38 tweets</title></rect><rect fill="#ff4e00" height="2.6" width="2.6" x="153.5" y="45.5"><title>2022-10-10 33 tweets</title></rect><rect fill="red" height="2.6" width="2.6" x="153.5" y="49.0"><title>2022-10-11 39 tweets</title></rect><rect fill="#39ff89" height="2.6" width="2.6" x="153.5" y="52.5"><title>2022-10-12 13 tweets</title></rect><rect fill="#ff7f00" height="2.6" width="2.6" x="153.5" y="56.0"><title>2022-10-13 24 tweets</title></rect><rect fill="#ff7f00" height="2.6" width="2.6" x="153.5" y="59.5"><title>2022-10-14 24 tweets</title></rect><rect fill="#31ff3b" height="2.6" width="2.6" x="153.5" y="63.0"><title>2022-10-15 18 tweets</title></rect><rect fill="#46fff9" height="2.6" width="2.6" x="153.5" y="66.5"><title>2022-10-16 5 tweets</title></rect><rect fill="#ff6f00" height="2.6" width="2.6" x="157.0" y="45.5"><title>2022-10-17 27 tweets</title></rect><rect fill="#ff7400" height="2.6" width="2.6" x="157.0" y="49.0"><title>2022-10-18 26 tweets</title></rect><rect fill="red" height="2.6" width="2.6" x="157.0" y="52.5"><title>2022-10-19 37 tweets</title></rect><rect fill="#ff5e00" height="2.6" width="2.6" x="157.0" y="56.0"><title>2022-10-20 30 tweets</title></rect><rect fill="#5bff2a" height="2.6" width="2.6" x="157.0" y="59.5"><title>2022-10-21 22 tweets</title></rect><rect fill="#3cffa7" height="2.6" width="2.6" x="157.0" y="63.0"><title>2022-10-22 11 tweets</title></rect><rect fill="#46fff9" height="2.6" width="2.6" x="157.0" y="66.5"><title>2022-10-23 5 tweets</title></rect><rect fill="#ff3d00" height="2.6" width="2.6" x="160.5" y="45.5"><title>2022-10-24 36 tweets</title></rect><rect fill="#ff4300" height="2.6" width="2.6" x="160.5" y="49.0"><title>2022-10-25 35 tweets</title></rect><rect fill="#69ff28" height="2.6" width="2.6" x="160.5" y="52.5"><title>2022-10-26 23 tweets</title></rect><rect fill="#ff7f00" height="2.6" width="2.6" x="160.5" y="56.0"><title>2022-10-27 24 tweets</title></rect><rect fill="#ff4300" height="2.6" width="2.6" x="160.5" y="59.5"><title>2022-10-28 35 tweets</title></rect><rect fill="#46fff9" height="2.6" width="2.6" x="160.5" y="63.0"><title>2022-10-29 5 tweets</title></rect><rect fill="#32ff4b" height="2.6" width="2.6" x="160.5" y="66.5"><title>2022-10-30 17 tweets</title></rect><rect fill="red" height="2.6" width="2.6" x="164.0" y="45.5"><title>2022-10-31 38 tweets</title></rect><rect fill="#31ff3b" height="2.6" width="2.6" x="164.0" y="49.0"><title>2022-11-01 18 tweets</title></rect><rect fill="#33ff2f" height="2.6" width="2.6" x="164.0" y="52.5"><title>2022-11-02 19 tweets</title></rect><rect fill="#37ff7a" height="2.6" width="2.6" x="164.0" y="56.0"><title>2022-11-03 14 tweets</title></rect><rect fill="red" height="2.6" width="2.6" x="164.0" y="59.5"><title>2022-11-04 37 tweets</title></rect><rect fill="#37ff7a" height="2.6" width="2.6" x="164.0" y="63.0"><title>2022-11-05 14 tweets</title></rect><rect fill="#39ff89" height="2.6" width="2.6" x="164.0" y="66.5"><title>2022-11-06 13 tweets</title></rect><rect fill="#39ff89" height="2.6" width="2.6" x="167.5" y="45.5"><title>2022-11-07 13 tweets</title></rect><rect fill="#36ff6b" height="2.6" width="2.6" x="167.5" y="49.0"><title>2022-11-08 15 tweets</title></rect><rect fill="#ff7a00" height="2.6" width="2.6" x="167.5" y="52.5"><title>2022-11-09 25 tweets</title></rect><rect fill="#36ff6b" height="2.6" width="2.6" x="167.5" y="56.0"><title>2022-11-10 15 tweets</title></rect><rect fill="#34ff5b" height="2.6" width="2.6" x="167.5" y="59.5"><title>2022-11-11 16 tweets</title></rect><rect fill="#ff7a00" height="2.6" width="2.6" x="167.5" y="63.0"><title>2022-11-12 25 tweets</title></rect><rect fill="#32ff4b" height="2.6" width="2.6" x="167.5" y="66.5"><title>2022-11-13 17 tweets</title></rect><rect fill="#32ff4b" height="2.6" width="2.6" x="171.0" y="45.5"><title>2022-11-14 17 tweets</title></rect><rect fill="#33ff2f" height="2.6" width="2.6" x="171.0" y="49.0"><title>2022-11-15 19 tweets</title></rect><rect fill="#41ffd1" height="2.6" width="2.6" x="171.0" y="52.5"><title>2022-11-16 8 tweets</title></rect><rect fill="#45ffec" height="2.6" width="2.6" x="171.0" y="56.0"><title>2022-11-17 6 tweets</title></rect><rect fill="#3effb5" height="2.6" width="2.6" x="171.0" y="59.5"><title>2022-11-18 10 tweets</title></rect><rect fill="#45ffec" height="2.6" width="2.6" x="171.0" y="63.0"><title>2022-11-19 6 tweets</title></rect><rect fill="#45ffec" height="2.6" width="2.6" x="171.0" y="66.5"><title>2022-11-20 6 tweets</title></rect><rect fill="#ff7f00" height="2.6" width="2.6" x="174.5" y="45.5"><title>2022-11-21 24 tweets</title></rect><rect fill="#3cffa7" height="2.6" width="2.6" x="174.5" y="49.0"><title>2022-11-22 11 tweets</title></rect><rect fill="#5bff2a" height="2.6" width="2.6" x="174.5" y="52.5"><title>2022-11-23 22 tweets</title></rect><rect fill="#ff6f00" height="2.6" width="2.6" x="174.5" y="56.0"><title>2022-11-24 27 tweets</title></rect><rect fill="#ff4800" height="2.6" width="2.6" x="174.5" y="59.5"><title>2022-11-25 34 tweets</title></rect><rect fill="#4aebff" height="2.6" width="2.6" x="174.5" y="63.0"><title>2022-11-26 3 tweets</title></rect><rect fill="#3bff98" height="2.6" width="2.6" x="174.5" y="66.5"><title>2022-11-27 12 tweets</title></rect><rect fill="#43ffdf" height="2.6" width="2.6" x="178.0" y="45.5"><title>2022-11-28 7 tweets</title></rect><rect fill="red" height="2.6" width="2.6" x="178.0" y="49.0"><title>2022-11-29 42 tweets</title></rect><rect fill="#43ffdf" height="2.6" width="2.6" x="178.0" y="52.5"><title>2022-11-30 7 tweets</title></rect><rect fill="#33ff2f" height="2.6" width="2.6" x="178.0" y="56.0"><title>2022-12-01 19 tweets</title></rect><rect fill="#48f8ff" height="2.6" width="2.6" x="178.0" y="59.5"><title>2022-12-02 4 tweets</title></rect><rect fill="#3effb5" height="2.6" width="2.6" x="178.0" y="63.0"><title>2022-12-03 10 tweets</title></rect><rect fill="#ff7a00" height="2.6" width="2.6" x="178.0" y="66.5"><title>2022-12-04 25 tweets</title></rect><rect fill="#ff7400" height="2.6" width="2.6" x="181.5" y="45.5"><title>2022-12-05 26 tweets</title></rect><rect fill="#39ff89" height="2.6" width="2.6" x="181.5" y="49.0"><title>2022-12-06 13 tweets</title></rect><rect fill="#4eff2c" height="2.6" width="2.6" x="181.5" y="52.5"><title>2022-12-07 21 tweets</title></rect><rect fill="#36ff6b" height="2.6" width="2.6" x="181.5" y="56.0"><title>2022-12-08 15 tweets</title></rect><rect fill="#69ff28" height="2.6" width="2.6" x="181.5" y="59.5"><title>2022-12-09 23 tweets</title></rect><rect fill="#48f8ff" height="2.6" width="2.6" x="181.5" y="63.0"><title>2022-12-10 4 tweets</title></rect><rect fill="#5bff2a" height="2.6" width="2.6" x="181.5" y="66.5"><title>2022-12-11 22 tweets</title></rect><rect fill="#ff7400" height="2.6" width="2.6" x="185.0" y="45.5"><title>2022-12-12 26 tweets</title></rect><rect fill="#ff6400" height="2.6" width="2.6" x="185.0" y="49.0"><title>2022-12-13 29 tweets</title></rect><rect fill="#ff7a00" height="2.6" width="2.6" x="185.0" y="52.5"><title>2022-12-14 25 tweets</title></rect><rect fill="#ff7f00" height="2.6" width="2.6" x="185.0" y="56.0"><title>2022-12-15 24 tweets</title></rect><rect fill="#ff6900" height="2.6" width="2.6" x="185.0" y="59.5"><title>2022-12-16 28 tweets</title></rect><rect fill="#40ff2d" height="2.6" width="2.6" x="185.0" y="63.0"><title>2022-12-17 20 tweets</title></rect><rect fill="#40ff2d" height="2.6" width="2.6" x="185.0" y="66.5"><title>2022-12-18 20 tweets</title></rect><rect fill="#41ffd1" height="2.6" width="2.6" x="188.5" y="45.5"><title>2022-12-19 8 tweets</title></rect><rect fill="#4dd2ff" height="2.6" width="2.6" x="188.5" y="49.0"><title>2022-12-20 1 tweets</title></rect><rect fill="#444444" height="2.6" width="2.6" x="188.5" y="52.5"><title>2022-12-21</title></rect><rect fill="#4dd2ff" height="2.6" width="2.6" x="188.5" y="56.0"><title>2022-12-22 1 tweets</title></rect><rect fill="#444444" height="2.6" width="2.6" x="188.5" y="59.5"><title>2022-12-23</title></rect><rect fill="#40ffc3" height="2.6" width="2.6" x="188.5" y="63.0"><title>2022-12-24 9 tweets</title></rect><rect fill="#4dd2ff" height="2.6" width="2.6" x="188.5" y="66.5"><title>2022-12-25 1 tweets</title></rect><rect fill="#3effb5" height="2.6" width="2.6" x="192.0" y="45.5"><title>2022-12-26 10 tweets</title></rect><rect fill="#4dd2ff" height="2.6" width="2.6" x="192.0" y="49.0"><title>2022-12-27 1 tweets</title></rect><rect fill="#3cffa7" height="2.6" width="2.6" x="192.0" y="52.5"><title>2022-12-28 11 tweets</title></rect><rect fill="#46fff9" height="2.6" width="2.6" x="192.0" y="56.0"><title>2022-12-29 5 tweets</title></rect><rect fill="#4aebff" height="2.6" width="2.6" x="192.0" y="59.5"><title>2022-12-30 3 tweets</title></rect><rect fill="#444444" height="2.6" width="2.6" x="192.0" y="63.0"><title>2022-12-31</title></rect></svg>